<?xml version="1.0" encoding="UTF-8"?>
<svg width="1812px" height="1812px" viewBox="0 0 1812 1812" version="1.1" xmlns="http://www.w3.org/2000/svg" xmlns:xlink="http://www.w3.org/1999/xlink">
    <!-- Generator: Sketch 52.5 (67469) - http://www.bohemiancoding.com/sketch -->
    <title>Artboard</title>
    <desc>Created with Sketch.</desc>
    <defs>
        <circle id="path-1" cx="906" cy="906" r="906"></circle>
    </defs>
    <g id="Artboard" stroke="none" stroke-width="1" fill="none" fill-rule="evenodd">
        <g id="Group-3" transform="translate(906.277488, 906.277488) rotate(-45.000000) translate(-906.277488, -906.277488) translate(0.277488, 0.277488)">
            <g id="Combined-Shape">
                <mask id="mask-2" fill="white">
                    <use xlink:href="#path-1"></use>
                </mask>
                <g id="Mask"></g>
                <path d="M1776.36277,653.55129 C1797.46011,670.21683 1811,696.02721 1811,725 L1811,863.052128 C1811.6642,877.284718 1812,891.603144 1812,906 C1812,920.396856 1811.6642,934.715282 1811,948.947872 L1811,1086 C1811,1114.80092 1797.62027,1140.47684 1776.73742,1157.15117 C1765.64027,1195.69416 1752.05325,1233.1825 1736.16172,1269.43086 C1778.70978,1277.05718 1811,1314.2577 1811,1359 L1811,1720 C1811,1770.25791 1770.25791,1811 1720,1811 L1359,1811 C1314.2577,1811 1277.05718,1778.70978 1269.43084,1736.16172 C1233.1825,1752.05325 1195.69416,1765.64027 1157.15118,1776.73741 C1140.47684,1797.62027 1114.80092,1811 1086,1811 L948.947872,1811 C934.715282,1811.6642 920.396856,1812 906,1812 C891.603144,1812 877.284718,1811.6642 863.052128,1811 L725,1811 C696.02721,1811 670.21683,1797.46011 653.55129,1776.36277 C615.135603,1765.23975 577.770955,1751.6423 541.64121,1735.75428 C534.180045,1778.50347 496.885008,1811 452,1811 L91,1811 C40.7420878,1811 -1.54552551e-11,1770.25791 -1.54614099e-11,1720 L-1.54614099e-11,1359 C-1.54669291e-11,1313.93256 32.7612252,1276.51692 75.7674651,1269.26928 C60.0455774,1233.38878 46.5814794,1196.29383 35.5548925,1158.16417 C13.9333159,1141.52712 -1.54578106e-11,1115.39071 -1.54614099e-11,1086 L-1.54614099e-11,725 C-1.54650299e-11,695.440752 14.0935745,669.173235 35.9276068,652.550565 C46.9804,614.54242 60.4561354,577.565683 76.1764917,541.798674 C32.969119,534.720059 -1.6365368e-11,497.210205 -1.63709046e-11,452 L-1.63709046e-11,91 C-1.63770595e-11,40.7420878 40.7420878,-7.26672539e-12 91,-7.27595761e-12 L452,-7.27595761e-12 C497.210205,-7.28426259e-12 534.720059,32.969119 541.798691,76.1764842 C577.565683,60.4561354 614.54242,46.9804 652.55056,35.9276137 C669.173235,14.0935745 695.440752,-7.27052767e-12 725,-7.27595761e-12 L1086,-7.27595761e-12 C1115.39071,-7.2813566e-12 1141.52712,13.9333159 1158.16416,35.5548848 C1196.29383,46.5814794 1233.38878,60.0455774 1269.26929,75.7674722 C1276.51692,32.7612252 1313.93256,-7.26767886e-12 1359,-7.27595761e-12 L1720,-7.27595761e-12 C1770.25791,-7.28518984e-12 1811,40.7420878 1811,91 L1811,452 C1811,496.885008 1778.50347,534.180045 1735.75429,541.641226 C1751.6423,577.770955 1765.23975,615.135603 1776.36277,653.55129 Z M1776.36277,653.55129 C1760.86342,641.307801 1741.28512,634 1720,634 L1359,634 C1308.74209,634 1268,674.742088 1268,725 L1268,1086 C1268,1136.25791 1308.74209,1177 1359,1177 L1720,1177 C1741.45699,1177 1761.17948,1169.57371 1776.73742,1157.15117 C1795.90487,1090.57806 1807.64411,1020.85858 1811,948.947872 L1811,863.052128 C1807.6223,790.674085 1795.75193,720.515846 1776.36277,653.55129 Z M1157.15117,1776.73742 C1169.57371,1761.17948 1177,1741.45699 1177,1720 L1177,1359 C1177,1308.74209 1136.25791,1268 1086,1268 L725,1268 C674.742088,1268 634,1308.74209 634,1359 L634,1720 C634,1741.28512 641.307801,1760.86342 653.55129,1776.36277 C720.515846,1795.75193 790.674085,1807.6223 863.052128,1811 L948.947872,1811 C1020.85858,1807.64411 1090.57806,1795.90487 1157.15118,1776.73741 Z M35.5548848,1158.16416 C50.9060529,1169.97635 70.1327956,1177 91,1177 L452,1177 C502.257912,1177 543,1136.25791 543,1086 L543,725 C543,674.742088 502.257912,634 452,634 L91,634 C70.3013358,634 51.2167408,640.910652 35.9276068,652.550565 C12.5391072,732.978569 -1.54614099e-11,818.024952 -1.54614099e-11,906 C-1.54614099e-11,993.506565 12.4059166,1078.11557 35.5548925,1158.16417 Z M1158.16417,35.5548925 C1078.11557,12.4059166 993.506565,-7.27595761e-12 906,-7.27595761e-12 C818.024952,-7.27595761e-12 732.978569,12.5391072 652.55056,35.9276137 C640.910652,51.2167408 634,70.3013358 634,91 L634,452 C634,502.257912 674.742088,543 725,543 L1086,543 C1136.25791,543 1177,502.257912 1177,452 L1177,91 C1177,70.1327956 1169.97635,50.9060529 1158.16416,35.5548848 Z M1735.75428,541.64121 C1644.37252,333.836831 1477.21631,166.88437 1269.26929,75.7674722 C1268.43456,80.7205484 1268,85.8095259 1268,91 L1268,452 C1268,502.257912 1308.74209,543 1359,543 L1720,543 C1725.3729,543 1730.63705,542.534358 1735.75429,541.641226 Z M541.798674,76.1764917 C334.231756,167.406539 167.406539,334.231756 76.1764917,541.798674 C81.0005751,542.589018 85.9522926,543 91,543 L452,543 C502.257912,543 543,502.257912 543,452 L543,91 C543,85.9522926 542.589018,81.0005751 541.798691,76.1764842 Z M541.641226,1735.75429 C542.534358,1730.63705 543,1725.3729 543,1720 L543,1359 C543,1308.74209 502.257912,1268 452,1268 L91,1268 C85.8095259,1268 80.7205484,1268.43456 75.7674651,1269.26928 C166.88437,1477.21631 333.836831,1644.37252 541.64121,1735.75428 Z M1736.16172,1269.43084 C1730.91661,1268.49071 1725.51561,1268 1720,1268 L1359,1268 C1308.74209,1268 1268,1308.74209 1268,1359 L1268,1720 C1268,1725.51561 1268.49071,1730.91661 1269.43084,1736.16172 C1477.61229,1644.8935 1644.8935,1477.61229 1736.16172,1269.43086 Z M725,634 C674.742088,634 634,674.742088 634,725 L634,1086 C634,1136.25791 674.742088,1177 725,1177 L1086,1177 C1136.25791,1177 1177,1136.25791 1177,1086 L1177,725 C1177,674.742088 1136.25791,634 1086,634 L725,634 Z" fill="#7C7F84" mask="url(#mask-2)"></path>
            </g>
            <circle id="Oval" stroke="#7C7F84" stroke-width="91" cx="906" cy="906" r="860.5"></circle>
            <g id="Group-2" transform="translate(599.000000, 128.000000)" stroke="#7C7F84" stroke-linecap="square" stroke-width="91">
                <path d="M0.5,0.5 L306.5,306" id="Line-4"></path>
                <path d="M307.5,0.5 L613,306" id="Line-4" transform="translate(460.000000, 153.000000) scale(-1, 1) translate(-460.000000, -153.000000) "></path>
            </g>
            <g id="Group-2" transform="translate(1536.000000, 906.500000) rotate(90.000000) translate(-1536.000000, -906.500000) translate(1229.500000, 753.500000)" stroke="#7C7F84" stroke-linecap="square" stroke-width="91">
                <path d="M0.5,0.5 L306.5,306" id="Line-4"></path>
                <path d="M307.5,0.5 L613,306" id="Line-4" transform="translate(460.000000, 153.000000) scale(-1, 1) translate(-460.000000, -153.000000) "></path>
            </g>
        </g>
    </g>
</svg>