<?xml version="1.0" standalone="no"?>
<!DOCTYPE svg PUBLIC "-//W3C//DTD SVG 20010904//EN"
 "http://www.w3.org/TR/2001/REC-SVG-20010904/DTD/svg10.dtd">
<svg version="1.0" xmlns="http://www.w3.org/2000/svg"
 width="700.000000pt" height="700.000000pt" viewBox="0 0 700.000000 700.000000"
 preserveAspectRatio="xMidYMid meet">
<metadata>
Created by potrace 1.14, written by Peter Selinger 2001-2017
</metadata>
<g transform="translate(0.000000,700.000000) scale(0.100000,-0.100000)"
fill="#000000" stroke="none">
<path d="M3278 6995 c-2 -1 -42 -5 -89 -9 -47 -4 -95 -8 -105 -10 -10 -2 -41
-7 -69 -10 -216 -28 -589 -123 -750 -191 -16 -7 -64 -26 -105 -43 -439 -177
-856 -466 -1211 -837 -442 -462 -767 -1099 -884 -1730 -10 -49 -18 -97 -20
-105 -45 -243 -55 -729 -20 -975 3 -16 7 -48 10 -70 13 -105 19 -143 50 -285
24 -115 103 -380 116 -395 5 -5 9 -15 9 -23 0 -20 71 -193 134 -325 255 -540
667 -1019 1188 -1384 25 -18 51 -33 56 -33 6 0 12 -4 14 -8 6 -16 232 -144
383 -217 254 -124 576 -232 825 -278 28 -5 128 -23 175 -32 17 -2 57 -7 90
-11 33 -3 71 -8 85 -11 14 -3 149 -6 300 -8 250 -2 407 6 545 29 22 4 58 9 80
12 22 3 56 10 75 14 19 5 51 12 70 15 62 10 292 73 395 109 307 104 601 252
864 433 52 36 99 69 105 74 6 5 38 30 71 56 287 225 565 529 756 823 108 165
118 183 213 370 148 291 284 711 322 995 1 11 7 49 13 85 19 121 26 244 26
475 0 205 -9 404 -20 438 -2 7 -6 35 -9 62 -28 242 -129 607 -242 872 -58 137
-139 296 -203 402 -28 46 -51 86 -51 88 0 2 -30 47 -67 101 -388 567 -921
1006 -1538 1265 -242 102 -438 161 -735 222 -8 1 -35 6 -60 9 -25 3 -56 8 -70
11 -13 3 -54 7 -90 11 -36 3 -76 8 -90 11 -26 5 -536 13 -542 8z m497 -358
c22 -3 67 -9 100 -12 98 -10 275 -43 381 -70 54 -15 106 -28 114 -30 8 -2 42
-12 74 -22 l60 -18 -380 -380 c-208 -208 -398 -393 -421 -411 -72 -55 -178
-80 -266 -63 -106 19 -123 34 -541 451 -220 219 -398 400 -395 402 21 21 418
115 555 131 33 4 67 9 78 11 10 2 59 6 110 10 50 3 92 7 94 9 5 5 396 -3 437
-8z m-1740 -1014 l0 -658 -662 -2 -662 -1 31 56 c215 387 518 734 869 998 135
101 388 262 414 264 7 0 10 -222 10 -657z m3044 601 c184 -101 449 -304 631
-485 178 -176 279 -298 410 -494 61 -92 160 -256 160 -266 0 -3 -292 -5 -650
-4 l-650 0 0 653 0 654 33 -20 c17 -10 48 -28 66 -38z m281 -1601 c401 1 731
-1 734 -4 7 -6 -629 -639 -669 -666 -72 -48 -184 -70 -268 -52 -97 21 -118 39
-658 579 -290 289 -538 543 -552 565 -34 52 -57 141 -52 202 10 140 16 147
393 526 l337 338 3 -745 2 -745 730 2z m-2296 769 c58 -116 49 -260 -24 -360
-15 -21 -261 -272 -545 -556 -513 -512 -555 -550 -636 -569 -96 -23 -179 -14
-260 30 -28 15 -164 143 -370 349 l-324 324 743 0 742 0 -1 713 c0 391 0 724
0 740 1 24 39 -11 326 -298 228 -229 332 -340 349 -373z m583 -592 c55 -25
117 -84 592 -559 345 -346 538 -546 552 -574 59 -115 58 -242 -4 -347 -29 -49
-1042 -1064 -1099 -1101 -67 -43 -148 -62 -225 -54 -127 13 -128 14 -714 602
-608 611 -583 579 -583 734 -1 154 -15 136 597 747 556 555 558 557 667 581
61 14 150 2 217 -29z m-2689 -742 c408 -408 407 -408 407 -558 0 -156 7 -146
-453 -606 -217 -217 -395 -394 -397 -392 -8 9 -78 259 -89 318 -2 14 -7 36
-10 50 -9 37 -19 104 -41 255 -20 134 -26 453 -12 625 8 97 10 121 27 225 5
33 12 78 15 100 4 22 11 58 17 80 5 22 12 51 15 65 2 14 15 66 29 115 14 50
30 107 36 128 l11 38 49 -48 c27 -26 205 -204 396 -395z m5542 405 c114 -399
145 -601 144 -963 0 -204 -5 -307 -23 -423 -6 -34 -12 -80 -16 -102 -20 -142
-107 -475 -123 -475 -4 0 -185 179 -403 398 -445 447 -446 449 -453 592 -3 53
13 119 41 175 18 36 796 832 815 834 4 1 12 -16 18 -36z m-4630 -1374 c19 -6
53 -22 75 -34 22 -13 276 -260 565 -549 411 -411 531 -536 552 -578 34 -67 48
-153 36 -221 -20 -110 -42 -135 -512 -606 l-444 -444 -123 65 c-377 199 -736
502 -1010 853 -91 118 -218 313 -289 449 l-63 118 454 453 c301 299 467 458
494 470 86 40 182 49 265 24z m3439 6 c87 -16 123 -48 581 -505 247 -247 450
-451 450 -453 0 -9 -89 -173 -141 -259 -135 -223 -272 -399 -454 -583 -190
-191 -302 -284 -505 -419 -118 -79 -323 -196 -366 -210 -16 -5 -103 77 -471
447 -403 403 -455 459 -479 512 -37 84 -39 185 -4 274 24 63 43 83 562 602
334 335 553 546 578 559 82 42 154 52 249 35z m-1692 -1744 c28 -10 62 -26 75
-35 12 -9 200 -192 415 -408 250 -250 388 -395 380 -399 -14 -8 -227 -69 -264
-75 -14 -3 -53 -11 -87 -19 -33 -7 -79 -16 -101 -19 -22 -4 -53 -8 -70 -11
-154 -24 -244 -30 -460 -30 -290 0 -441 16 -709 76 -89 20 -286 76 -294 83 -7
8 788 796 821 813 89 46 207 56 294 24z"/>
</g>
</svg>
